<svg xmlns="http://www.w3.org/2000/svg" viewBox="0 0 712.54 256.87"><defs><style>.d{fill:#12499f;}.e{fill:#1649a1;}.f{fill:#404041;}.g{fill:#1a3586;}.h{fill:#58585a;}</style></defs><g id="a"></g><g id="b"><g id="c"><g><g><path class="h" d="M44.34,12.25h-14.06V84.09h-13.94V12.25H2.3V0H44.34V12.25Z"></path><path class="h" d="M74.98,65.35h-15.38l-3,18.74h-13.46L58.76,0h17.54l15.86,84.09h-14.17l-3-18.74Zm-1.8-11.53l-5.89-37.36-5.89,37.36h11.77Z"></path><path class="h" d="M134.45,71.84h-7.81l-12.61-39.16v51.42h-12.97V0h13.21l16.22,48.89L146.82,0h13.7V84.09h-13.46V32.68l-12.61,39.16Z"></path><path class="h" d="M217.34,17.78v15.98c0,12.73-8.41,17.78-21.14,17.78h-7.81v32.56h-13.94V0h21.74c12.73,0,21.14,5.05,21.14,17.78Zm-13.93,2.16c0-6.01-3.12-7.69-7.69-7.69h-7.33v27.03h7.33c4.56,0,7.69-1.68,7.69-7.69v-11.65Z"></path><path class="h" d="M251.94,65.35h-15.38l-3,18.74h-13.46L235.72,0h17.54l15.86,84.09h-14.18l-3-18.74Zm-1.8-11.53l-5.89-37.36-5.89,37.36h11.77Z"></path><path class="h" d="M330.75,40.36c7.33,1.2,9.85,6.85,9.85,13.33v13.82c0,10.57-8.17,16.58-20.9,16.58h-21.74V0h21.98c12.73,0,20.18,6.01,20.18,16.58v10.57c0,6.01-2.64,12.37-9.37,13.21Zm-18.86-5.65h7.81c3.96,0,6.49-2.04,6.49-6.49v-9.73c0-4.44-2.52-6.49-6.49-6.49h-7.81v22.71Zm8.29,11.77h-8.29v25.59h8.29c3.96,0,6.49-2.04,6.49-6.49v-12.61c0-4.44-2.52-6.49-6.49-6.49Z"></path><path class="h" d="M378.93,65.35h-15.38l-3,18.74h-13.46L362.71,0h17.54l15.86,84.09h-14.17l-3-18.74Zm-1.8-11.53l-5.89-37.36-5.89,37.36h11.77Z"></path><path class="h" d="M423.62,84.09h-13.94v-29.91L392.75,0h14.66l9.37,39.04L426.14,0h14.42l-16.94,54.18v29.91Z"></path></g><g><path class="e" d="M62.28,218.32h-30.08l-5.88,36.67H0L30.55,90.47h34.31l31.02,164.52h-27.73l-5.88-36.67Zm-3.53-22.56l-11.52-73.09-11.52,73.09h23.03Z"></path><path class="e" d="M156.3,254.99h-30.08l-31.02-164.52h27.73l19.04,121.98,19.04-121.98h26.32l-31.02,164.52Z"></path><path class="e" d="M205.65,254.99V90.47h27.26V254.99h-27.26Z"></path><path class="e" d="M313.53,218.32h-30.08l-5.88,36.67h-26.32l30.55-164.52h34.31l31.02,164.52h-27.73l-5.88-36.67Zm-3.53-22.56l-11.52-73.09-11.52,73.09h23.03Z"></path><path class="e" d="M427.04,114.44h-27.5V254.99h-27.26V114.44h-27.5v-23.97h82.26v23.97Z"></path><path class="e" d="M445.84,254.99V90.47h27.26V254.99h-27.26Z"></path><path class="e" d="M541.74,88.59h1.88c24.91,0,41.37,9.87,41.37,34.78v98.71c0,24.91-16.45,34.78-41.37,34.78h-1.88c-24.91,0-41.37-9.87-41.37-34.78V123.37c0-25.15,16.45-34.78,41.37-34.78Zm.94,144.31c8.93,0,15.04-3.29,15.04-15.04V127.6c0-11.75-6.11-15.04-15.04-15.04s-15.04,3.29-15.04,15.04v90.25c0,11.75,6.11,15.04,15.04,15.04Z"></path><path class="e" d="M611.3,254.99V90.47h27.26l34.55,101.77V90.47h24.91V254.99h-25.85l-35.96-106.94v106.94h-24.91Z"></path></g><polygon class="d" points="581.54 72.83 581.54 49.12 454.54 14.83 454.54 18.21 581.54 72.83"></polygon><g><polygon class="h" points="545.54 35.13 583.54 16.13 621.51 35.13 583.53 45.68 545.54 35.13"></polygon><polygon class="g" points="574.54 18.13 582.54 13.13 543.54 2.13 574.54 18.13"></polygon><polygon class="g" points="585.54 72.13 585.54 48.42 712.54 14.13 712.54 17.51 585.54 72.13"></polygon><polygon class="g" points="591.54 18.13 583.54 13.13 622.54 2.13 591.54 18.13"></polygon><polygon class="f" points="583.54 16.13 583.53 45.68 545.54 35.13 583.54 16.13"></polygon></g></g></g></g></svg>